<svg width="180" height="170" viewBox="0 0 180 170" fill="none" xmlns="http://www.w3.org/2000/svg">
<g clip-path="url(#clip0_117_211)">
<path d="M92.25 160.083C91.5 160.083 90.75 160.083 90 160.083C88.5 160.083 87.75 159.375 86.25 157.958L38.25 111.208C35.25 108.375 35.25 104.125 38.25 101.292C41.25 98.4582 45.75 98.4582 48.75 101.292L91.5 143.083L149.25 87.1248C153.75 82.8748 156.75 77.9165 158.25 72.9582C162.75 59.4998 159 46.0415 149.25 36.1248C144.75 31.1665 138 28.3332 130.5 28.3332C120 28.3332 108 33.9998 97.5 43.9165C96 45.3332 94.5 46.0415 92.25 46.0415C90 46.0415 88.5 45.3332 87 43.9165C76.5 33.9998 64.5 28.3332 53.25 28.3332C45.75 28.3332 39.75 31.1665 33.75 36.1248C24.75 44.6248 21 57.3748 24 70.1248C25.5 74.3748 22.5 77.9165 18.75 78.6248C15 79.3332 10.5 77.2082 9.74998 73.6665C5.24998 56.6665 10.5 38.9582 24 26.2082C32.25 18.4165 42 14.1665 53.25 14.1665C66 14.1665 79.5 19.8332 91.5 29.7498C104.25 19.8332 117.75 14.1665 130.5 14.1665C141.75 14.1665 152.25 18.4165 160.5 26.2082C174.75 39.6665 179.25 58.7915 173.25 77.2082C171 84.2915 166.5 91.3748 160.5 97.0415L97.5 157.958C96 159.375 94.5 160.083 92.25 160.083Z" fill="#1678F2"/>
<path d="M90.75 117.583C87 117.583 84.75 115.458 83.25 112.625L74.25 84.9997L72 92.083C71.25 94.9163 68.25 97.0413 64.5 97.0413H15C10.5 97.0413 7.5 94.208 7.5 89.958C7.5 85.708 10.5 82.8747 15 82.8747H59.25L66 58.7913C67.5 55.958 70.5 53.833 73.5 53.833C76.5 53.833 79.5 55.958 81 58.7913L91.5 89.958L101.25 66.583C102.75 63.7497 105 62.333 108 62.333C111 62.333 114 64.458 114.75 66.583L121.5 82.8747H132C136.5 82.8747 139.5 85.708 139.5 89.958C139.5 94.208 136.5 97.0413 132 97.0413H116.25C113.25 97.0413 110.25 94.9163 109.5 92.7913L108 88.5413L97.5 113.333C96.75 116.166 93.75 117.583 90.75 117.583Z" fill="#1678F2"/>
</g>
<defs>
<clipPath id="clip0_117_211">
<rect width="168.75" height="145.917" fill="white" transform="translate(7.5 14.1665)"/>
</clipPath>
</defs>
</svg>
